<?xml version="1.0" encoding="utf-8"?>
<!-- Generator: Adobe Illustrator 24.3.0, SVG Export Plug-In . SVG Version: 6.00 Build 0)  -->
<svg version="1.1" id="Layer_1" xmlns="http://www.w3.org/2000/svg" xmlns:xlink="http://www.w3.org/1999/xlink" x="0px" y="0px"
	 viewBox="0 0 1122.1 237.3" style="enable-background:new 0 0 1122.1 237.3;" xml:space="preserve">
<path d="M110.9,99.2l-33.4-5.5c-6.7-1.2-11.6-2.9-14.6-5.1c-3-2.1-4.7-5.6-4.5-9.2c0-2.8,1.1-5.5,3.1-7.5c2.6-2.3,5.6-4,9-4.8
	c4.5-1.2,9.2-1.8,13.9-1.7c16.4,0,32.9,6.4,49.5,19.1l20.9-29.2c-9.4-7.5-20.1-13.2-31.5-16.9c-11.6-4-23.8-6-36.1-6.1
	c-13.7,0-25.4,2-35.3,6S34.4,48,29.1,55.5c-5.3,7.5-7.9,16.5-7.9,26.9c0,11.8,3.5,21.5,10.6,29.2s17.1,12.7,30.1,15l35.4,6.2
	c8.1,1.4,13.9,3.3,17.2,5.8c3.3,2.4,5.2,6.3,5.1,10.4c0,3.1-1.2,6.2-3.5,8.4c-2.8,2.6-6.2,4.5-9.9,5.4c-5.1,1.3-10.4,1.9-15.6,1.8
	c-9.1,0.1-18.1-1.7-26.5-5.2c-8.3-3.5-17.3-9.2-27.1-17.1L15,171c10.1,8.5,21.6,15.2,34,19.8c12.4,4.7,25.5,7.1,38.7,7.1
	c14.6,0,27.1-2.1,37.7-6.4c10.6-4.3,18.7-10.4,24.4-18.3c5.7-7.9,8.5-17.3,8.5-28.2c0-12.4-4-22.5-12.1-30.4S126.4,101.6,110.9,99.2
	z"/>
<polygon points="282.2,96.4 216,96.4 216,34.5 176.4,34.5 176.4,195.5 216,195.5 216,132.5 282.2,132.5 282.2,195.5 321.8,195.5 
	321.8,34.5 282.2,34.5 "/>
<path d="M489.9,56c-7.9-7.6-17.2-13.6-27.4-17.7c-21.7-8.4-45.9-8.4-67.6,0c-10.2,4.1-19.5,10.1-27.4,17.7
	c-7.8,7.5-14,16.5-18.3,26.4c-4.4,10.3-6.7,21.4-6.6,32.6c-0.1,11.2,2.1,22.3,6.6,32.5c4.3,9.9,10.5,18.9,18.3,26.5
	c7.9,7.6,17.2,13.6,27.4,17.7c21.7,8.4,45.9,8.4,67.6,0c10.2-4.1,19.5-10.1,27.4-17.7c7.8-7.5,14-16.5,18.3-26.4
	c4.4-10.3,6.7-21.4,6.6-32.6c0.1-11.2-2.1-22.3-6.6-32.6C503.9,72.5,497.7,63.5,489.9,56z M470.6,133.5
	c-9.1,23.1-35.2,34.5-58.4,25.4c-11.6-4.6-20.8-13.8-25.4-25.4c-2.3-6-3.5-12.3-3.4-18.7c-0.1-6.3,1.1-12.5,3.4-18.4
	c9.2-23.1,35.4-34.4,58.6-25.2c11.5,4.6,20.6,13.7,25.2,25.2C475.2,108.4,475.2,121.6,470.6,133.5z"/>
<polygon points="575.2,130.9 633,130.9 633,97.8 575.2,97.8 575.2,68.8 662.6,68.8 662.6,34.5 535.7,34.5 535.7,195.5 663.6,195.5 
	663.6,161.3 575.2,161.3 "/>
<path d="M804.9,57.3c-7.7-7.3-16.9-13-26.8-16.8c-10.8-4.1-22.3-6.1-33.8-6h-53.1v161h53.1c11.6,0.1,23.1-1.9,33.9-6
	c10-3.8,19.1-9.5,26.9-16.8c7.6-7.2,13.5-15.9,17.6-25.5c4.2-10.2,6.3-21.2,6.2-32.2c0.1-11.1-2-22-6.3-32.2
	C818.5,73.2,812.5,64.5,804.9,57.3z M806.1,140.6c-3.2,7.7-8,14.6-13.9,20.4c-6,5.9-13.1,10.5-20.9,13.6c-8.3,3.3-17.1,4.9-26,4.8
	h-36.3V50.6h36.3c8.9-0.1,17.7,1.6,26,4.8c7.8,3.1,14.9,7.7,20.9,13.5c6,5.8,10.7,12.8,13.9,20.5c3.3,8.1,5,16.8,4.9,25.5
	C811.1,123.8,809.4,132.5,806.1,140.6z"/>
<polygon points="874.5,121.9 938.2,121.9 938.2,106.5 874.5,106.5 874.5,50.2 972,50.2 972,34.5 856.8,34.5 856.8,195.5 
	972.9,195.5 972.9,179.9 874.5,179.9 "/>
<polygon points="1016.2,179.7 1016.2,34.5 998.4,34.5 998.4,195.5 1112.1,195.5 1112.1,179.7 "/>
</svg>
